<svg version="1.1" id="Layer_1" xmlns="http://www.w3.org/2000/svg" xmlns:xlink="http://www.w3.org/1999/xlink" x="0px" y="0px"
	 width="100%" viewBox="0 0 8000 1966" enable-background="new 0 0 8000 1966" xml:space="preserve">
<path fill="#FFFFFF" opacity="1.000000" stroke="none" 
	d="
M5910.000000,1968.000000 
	C3940.000000,1968.000000 1971.000000,1968.000000 2.000000,1968.000000 
	C2.000000,1312.666626 2.000000,657.333313 2.000000,2.000000 
	C2668.666748,2.000000 5335.333496,2.000000 8002.000000,2.000000 
	C8002.000000,657.333313 8002.000000,1312.666626 8002.000000,1968.000000 
	C7305.000000,1968.000000 6608.000000,1968.000000 5910.000000,1968.000000 
M3695.988037,1142.959595 
	C3673.578613,1273.542969 3651.169189,1404.126221 3628.763428,1534.710205 
	C3628.425293,1536.678833 3628.079590,1538.649780 3627.856934,1540.633057 
	C3627.747803,1541.604492 3627.880615,1542.609741 3627.973877,1543.593018 
	C3628.002686,1543.901123 3628.198730,1544.254883 3628.429688,1544.464111 
	C3628.637451,1544.652344 3628.998535,1544.671021 3629.894775,1544.956421 
	C3631.237305,1544.331055 3633.052734,1543.568481 3634.792969,1542.661621 
	C3657.247070,1530.961548 3679.723877,1519.303833 3702.131104,1507.514404 
	C3800.013916,1456.014526 3897.897705,1404.515991 3995.689453,1352.843628 
	C4001.328857,1349.863647 4005.764648,1349.803589 4011.432129,1352.828125 
	C4053.166260,1375.099976 4095.058838,1397.075317 4136.925293,1419.098755 
	C4213.583496,1459.424316 4290.256348,1499.723511 4366.934082,1540.012451 
	C4370.701660,1541.992065 4374.575684,1543.768555 4379.664551,1546.258301 
	C4379.234375,1542.398926 4379.080078,1539.878174 4378.658203,1537.403320 
	C4372.392578,1500.653442 4366.104004,1463.907471 4359.797852,1427.164673 
	C4350.056641,1370.404419 4340.299316,1313.646973 4330.547363,1256.888550 
	C4323.782715,1217.517944 4317.173828,1178.119263 4310.115234,1138.801514 
	C4308.674805,1130.778687 4310.362305,1125.192139 4316.414551,1119.449219 
	C4341.792480,1095.369385 4366.700195,1070.792969 4391.740234,1046.357666 
	C4463.284668,976.540894 4534.813965,906.708313 4606.319336,836.850952 
	C4608.085449,835.125549 4609.500977,833.041565 4611.947266,830.072510 
	C4605.281738,829.122009 4600.045898,828.393921 4594.814941,827.626343 
	C4528.276855,817.862427 4461.750000,808.014893 4395.197754,798.347534 
	C4332.933594,789.302979 4270.636230,780.486450 4208.365723,771.483643 
	C4191.872559,769.099182 4191.939453,768.931091 4184.440918,753.736511 
	C4125.767578,634.837952 4067.077637,515.947205 4008.363770,397.068420 
	C4007.113037,394.536194 4005.517090,392.174500 4003.307129,388.414764 
	C4000.962646,392.787109 3999.337891,395.616730 3997.896240,398.536682 
	C3985.950684,422.732697 3974.053955,446.952911 3962.114258,471.151855 
	C3936.470215,523.127075 3910.822266,575.100464 3885.151611,627.062622 
	C3862.869873,672.164368 3840.510010,717.227600 3818.323730,762.376160 
	C3816.070801,766.960876 3813.376709,769.395386 3807.966553,770.158752 
	C3758.195068,777.181152 3708.478271,784.591431 3658.732422,791.798523 
	C3578.997314,803.350220 3499.250977,814.822083 3419.514648,826.363281 
	C3411.793945,827.480774 3404.109619,828.848267 3394.647217,830.386047 
	C3398.189209,834.198425 3400.289795,836.656921 3402.594971,838.906006 
	C3412.130127,848.210449 3421.761230,857.416992 3431.296387,866.721863 
	C3474.701416,909.079956 3518.060303,951.485107 3561.484619,993.823364 
	C3604.668213,1035.926514 3647.812012,1078.072388 3691.245117,1119.916992 
	C3696.993896,1125.455688 3699.527344,1130.769531 3696.671387,1138.307251 
	C3696.325684,1139.219604 3696.357910,1140.275024 3695.988037,1142.959595 
M7200.016602,1460.946045 
	C7218.018555,1470.378174 7236.032227,1479.787109 7254.018555,1489.248535 
	C7272.300293,1498.865356 7290.471191,1508.694580 7308.843750,1518.133545 
	C7326.617188,1527.264893 7343.848633,1537.531372 7363.015625,1546.003540 
	C7362.854004,1543.418213 7362.882324,1542.444092 7362.721191,1541.502808 
	C7352.572754,1482.448975 7342.361816,1423.406006 7332.260254,1364.344116 
	C7319.240234,1288.214478 7306.415039,1212.051270 7293.143555,1135.965454 
	C7292.015625,1129.497314 7293.318359,1125.555054 7297.909668,1121.138184 
	C7332.490234,1087.868652 7366.862793,1054.382690 7401.232422,1020.893799 
	C7463.047852,960.661072 7524.818848,900.382507 7586.590332,840.104614 
	C7589.397461,837.365479 7592.035156,834.452271 7595.510742,830.829041 
	C7591.964355,829.899536 7589.545410,829.025391 7587.051758,828.651245 
	C7572.566895,826.477661 7558.065918,824.409973 7543.567383,822.328308 
	C7495.128418,815.373291 7446.676270,808.506592 7398.250977,801.459412 
	C7327.411621,791.150330 7256.621582,780.496338 7185.721680,770.625916 
	C7177.464844,769.476440 7173.715820,766.029724 7170.363770,759.214417 
	C7117.137207,650.989807 7063.723633,542.856995 7010.340820,434.709320 
	C7002.838867,419.511017 6995.271973,404.344696 6987.014160,387.711090 
	C6984.755859,391.839905 6983.106445,394.607361 6981.686523,397.487885 
	C6946.915039,468.004700 6912.180664,538.539795 6877.414062,609.058838 
	C6852.665527,659.258118 6827.789062,709.395081 6803.218750,759.681519 
	C6799.995117,766.278137 6796.184570,769.497620 6788.410645,770.557739 
	C6732.659180,778.160217 6676.997070,786.417358 6621.312012,794.505432 
	C6548.171387,805.128845 6475.023926,815.702332 6401.917969,826.559753 
	C6394.395020,827.677002 6386.379883,827.430054 6377.508301,831.762268 
	C6382.333496,836.038330 6386.180664,839.210144 6389.759766,842.660034 
	C6404.872559,857.229614 6419.931152,871.855835 6434.962891,886.509094 
	C6493.425293,943.500183 6551.869141,1000.509338 6610.320312,1057.511841 
	C6632.508301,1079.150024 6654.608887,1100.879395 6676.968262,1122.339722 
	C6680.799316,1126.016357 6682.107422,1129.317871 6680.774902,1134.584229 
	C6678.984375,1141.658813 6678.317383,1149.013306 6677.076660,1156.231934 
	C6667.375977,1212.662964 6657.643066,1269.088379 6647.942383,1325.519287 
	C6637.508301,1386.221191 6627.084473,1446.925049 6616.689453,1507.633789 
	C6614.571289,1520.003296 6612.599121,1532.397827 6610.264160,1546.578613 
	C6615.559570,1543.938721 6619.374023,1542.125854 6623.108398,1540.161377 
	C6654.954590,1523.411255 6686.772949,1506.607666 6718.625000,1489.868652 
	C6804.742188,1444.612061 6890.928223,1399.486816 6976.895996,1353.948608 
	C6984.336914,1350.007080 6989.833496,1350.272583 6997.044922,1354.095093 
	C7064.161621,1389.673340 7131.463379,1424.900635 7200.016602,1460.946045 
M5751.377441,1483.586792 
	C5790.988770,1504.388062 5830.600586,1525.189209 5871.739746,1546.792603 
	C5871.236816,1543.010254 5871.077148,1541.414185 5870.806641,1539.836914 
	C5867.207031,1518.840332 5863.576172,1497.849121 5859.982910,1476.851318 
	C5849.707520,1416.800903 5839.452637,1356.746948 5829.175781,1296.696777 
	C5819.853027,1242.224609 5810.604004,1187.739380 5801.020996,1133.312866 
	C5800.188965,1128.585449 5801.427734,1125.760864 5804.581055,1122.855103 
	C5809.724609,1118.114990 5814.750488,1113.245728 5819.756836,1108.359253 
	C5863.872070,1065.298340 5907.948730,1022.196960 5952.084473,979.156738 
	C5999.798828,932.625610 6047.569336,886.151428 6095.297852,839.634766 
	C6098.024414,836.977600 6100.596191,834.161560 6104.042969,830.586548 
	C6099.449219,829.630249 6096.557129,828.864441 6093.615723,828.440125 
	C6031.335449,819.455627 5969.041016,810.568054 5906.767090,801.540833 
	C5834.614746,791.081726 5762.488281,780.449707 5690.319336,770.106445 
	C5685.380859,769.398621 5682.579590,767.383362 5680.543457,763.057617 
	C5675.153320,751.604004 5669.547363,740.250549 5663.936035,728.902649 
	C5636.765625,673.955872 5609.516602,619.047668 5582.387207,564.080811 
	C5554.959961,508.510986 5527.646484,452.885223 5500.254395,397.298309 
	C5498.867676,394.484039 5497.208008,391.803955 5495.144043,388.109680 
	C5493.350586,391.437195 5492.192383,393.435211 5491.171387,395.500702 
	C5453.380371,471.956451 5415.589844,548.412598 5377.826172,624.882019 
	C5355.255371,670.585510 5332.675293,716.284973 5310.258789,762.064270 
	C5307.826172,767.031677 5304.881836,769.705811 5299.053711,770.251160 
	C5287.796387,771.304382 5276.618164,773.231628 5265.418457,774.872375 
	C5208.762207,783.172302 5152.120605,791.575073 5095.452637,799.791504 
	C5033.506348,808.773132 4971.534180,817.570801 4909.581543,826.505432 
	C4902.218262,827.567322 4894.906250,828.986084 4886.158203,830.480774 
	C4889.887207,834.349365 4892.314453,837.009644 4894.890137,839.518127 
	C4934.758301,878.346497 4974.651367,917.148865 5014.525391,955.970764 
	C5038.158691,978.980164 5061.767090,1002.014160 5085.389648,1025.034546 
	C5118.801270,1057.594849 5152.185547,1090.183594 5185.673828,1122.665161 
	C5189.145996,1126.033081 5190.109375,1129.371460 5189.254883,1134.219604 
	C5181.969238,1175.530273 5174.975586,1216.892212 5167.873535,1258.235229 
	C5159.305176,1308.110352 5150.714355,1357.981567 5142.138184,1407.855347 
	C5134.859375,1450.182129 5127.577148,1492.508545 5120.333008,1534.841309 
	C5119.755859,1538.214233 5119.463867,1541.635986 5118.851562,1546.536011 
	C5123.805176,1544.017822 5127.039551,1542.420898 5130.231445,1540.744629 
	C5172.116211,1518.747925 5213.997070,1496.744263 5255.874023,1474.733398 
	C5332.550293,1434.431885 5409.262207,1394.197754 5485.828613,1353.688843 
	C5492.372559,1350.226562 5497.308594,1349.858887 5504.163086,1353.490601 
	C5586.007812,1396.854004 5668.062988,1439.819214 5751.377441,1483.586792 
M2616.225830,598.721069 
	C2581.722900,529.046143 2547.759277,459.100220 2511.956787,387.971802 
	C2509.292725,392.775757 2507.607422,395.554260 2506.169922,398.455811 
	C2501.733154,407.412170 2497.436035,416.437836 2493.004395,425.396759 
	C2468.333252,475.268219 2443.581787,525.100098 2418.966064,574.998779 
	C2388.305176,637.151123 2357.704346,699.333130 2327.230225,761.577209 
	C2324.631836,766.884949 2321.385986,769.499939 2315.272949,770.288696 
	C2290.184082,773.525757 2265.171875,777.360229 2240.136963,781.013428 
	C2192.359863,787.985352 2144.592041,795.020691 2096.810303,801.961365 
	C2039.476196,810.289551 1982.129639,818.531738 1924.794434,826.853638 
	C1918.044800,827.833130 1911.333984,829.080261 1902.535522,830.548767 
	C1909.676392,837.499695 1915.318237,842.979919 1920.947754,848.473022 
	C1985.346558,911.311584 2049.740479,974.155457 2114.142334,1036.990967 
	C2143.005615,1065.152100 2171.779297,1093.406494 2200.861328,1121.340210 
	C2205.564941,1125.858276 2206.905518,1130.252441 2205.598145,1136.377808 
	C2203.792969,1144.837646 2202.585449,1153.425049 2201.114502,1161.956543 
	C2190.762451,1221.999512 2180.387695,1282.038696 2170.061035,1342.086060 
	C2160.241699,1399.180908 2150.461670,1456.282715 2140.690430,1513.385986 
	C2138.911865,1523.779907 2137.260254,1534.195679 2135.240967,1546.483154 
	C2143.212891,1542.445923 2149.424316,1539.402100 2155.544678,1536.185913 
	C2271.461914,1475.276367 2387.396973,1414.401001 2503.199219,1353.273682 
	C2509.596924,1349.896729 2514.465576,1350.013550 2520.686523,1353.360229 
	C2551.787598,1370.092163 2583.095459,1386.440552 2614.357178,1402.873169 
	C2702.540771,1449.226440 2790.735352,1495.557983 2878.936523,1541.877686 
	C2881.507568,1543.228027 2884.199463,1544.348633 2887.863281,1546.055420 
	C2887.531494,1542.278442 2887.477539,1539.666016 2887.046631,1537.117432 
	C2885.437012,1527.597290 2883.650146,1518.107056 2882.025391,1508.589355 
	C2871.716064,1448.202881 2861.481445,1387.803589 2851.126709,1327.424805 
	C2840.208984,1263.762085 2829.256348,1200.105103 2818.100586,1136.483887 
	C2816.930176,1129.810669 2818.710205,1125.358643 2823.542480,1120.681763 
	C2871.914307,1073.865601 2920.085938,1026.842041 2968.271973,979.834045 
	C3016.223633,933.054626 3064.131836,886.231018 3112.038574,839.405945 
	C3114.589600,836.912659 3116.950439,834.225098 3120.156006,830.826111 
	C3116.240234,829.846924 3113.490479,828.904907 3110.663330,828.490784 
	C3073.438232,823.038757 3036.203369,817.652222 2998.968750,812.266968 
	C2954.813721,805.880676 2910.651367,799.544617 2866.501221,793.126587 
	C2814.437256,785.558167 2762.406250,777.759033 2710.297363,770.515320 
	C2703.189941,769.527344 2699.130127,767.055664 2695.956543,760.551819 
	C2669.805176,706.953552 2643.310303,653.522766 2616.225830,598.721069 
M1084.159180,516.753418 
	C1073.670654,495.551086 1063.351074,474.262970 1052.646118,453.170502 
	C1041.935669,432.067505 1032.680664,410.185822 1020.083069,388.552429 
	C1018.142822,391.872803 1017.052185,393.503357 1016.190796,395.247192 
	C970.885925,486.959412 925.598083,578.680054 880.314270,670.402649 
	C865.269531,700.875793 850.192749,731.333374 835.256897,761.859802 
	C833.081970,766.304871 830.723999,769.316589 825.173157,770.086914 
	C782.957764,775.944519 740.789978,782.145264 698.608093,788.243896 
	C646.867920,795.724365 595.124573,803.182129 543.390076,810.701538 
	C503.521454,816.496399 463.662384,822.357056 423.805817,828.234375 
	C420.110657,828.779236 416.464569,829.656921 411.624237,830.610840 
	C414.841614,834.072449 416.765503,836.325562 418.877014,838.386292 
	C444.158813,863.060425 469.482513,887.691528 494.768005,912.361877 
	C566.094177,981.952515 637.363953,1051.601196 708.827576,1121.050293 
	C713.420593,1125.513672 715.134766,1129.711670 713.957703,1135.967163 
	C710.633423,1153.634033 707.757141,1171.385132 704.712708,1189.104614 
	C695.803711,1240.956543 686.901001,1292.809570 677.991821,1344.661377 
	C668.181335,1401.758789 658.347595,1458.852295 648.571655,1515.955566 
	C646.919250,1525.607178 645.507263,1535.300049 643.775757,1546.297729 
	C647.409607,1544.614136 649.534302,1543.740234 651.558838,1542.675903 
	C747.415405,1492.289551 843.264404,1441.888916 939.111328,1391.484253 
	C963.589783,1378.611450 988.122498,1365.838989 1012.480652,1352.742310 
	C1017.688721,1349.942139 1022.244995,1348.998413 1027.270874,1352.598633 
	C1028.880371,1353.751587 1030.790771,1354.483887 1032.560669,1355.414185 
	C1149.360229,1416.810303 1266.158447,1478.209106 1382.963257,1539.595337 
	C1386.925781,1541.677856 1390.954956,1543.634155 1396.129517,1546.242310 
	C1395.881470,1542.423828 1395.925903,1540.448853 1395.602783,1538.536255 
	C1391.497681,1514.238403 1387.370117,1489.944336 1383.188965,1465.659546 
	C1374.771973,1416.773193 1366.284180,1367.899048 1357.887939,1319.009033 
	C1347.518677,1258.630127 1337.323853,1198.220825 1326.734253,1137.880615 
	C1325.456543,1130.599854 1326.613770,1125.667236 1332.164551,1120.312134 
	C1379.656494,1074.493896 1426.811890,1028.326904 1474.069946,982.266235 
	C1523.473877,934.114136 1572.885742,885.970215 1622.264771,837.792542 
	C1624.293945,835.812744 1626.022949,833.525391 1628.457520,830.732422 
	C1624.684204,829.807617 1622.159058,828.968262 1619.566528,828.588440 
	C1599.799438,825.692749 1580.014038,822.921814 1560.244019,820.045471 
	C1516.417847,813.669250 1472.601196,807.226135 1428.773071,800.863037 
	C1389.886719,795.217346 1350.989502,789.646851 1312.098145,784.035950 
	C1279.473633,779.329102 1246.855713,774.575195 1214.219482,769.950378 
	C1210.573975,769.433777 1208.002686,767.949402 1206.431885,764.614990 
	C1205.296265,762.204590 1203.960449,759.889282 1202.782104,757.498047 
	C1163.456909,677.697754 1124.140015,597.893372 1084.159180,516.753418 
z"/>
<path fill="#F8C316" opacity="1.000000" stroke="none" 
	d="
M3696.101318,1142.111816 
	C3696.357910,1140.275024 3696.325684,1139.219604 3696.671387,1138.307251 
	C3699.527344,1130.769531 3696.993896,1125.455688 3691.245117,1119.916992 
	C3647.812012,1078.072388 3604.668213,1035.926514 3561.484619,993.823364 
	C3518.060303,951.485107 3474.701416,909.079956 3431.296387,866.721863 
	C3421.761230,857.416992 3412.130127,848.210449 3402.594971,838.906006 
	C3400.289795,836.656921 3398.189209,834.198425 3394.647217,830.386047 
	C3404.109619,828.848267 3411.793945,827.480774 3419.514648,826.363281 
	C3499.250977,814.822083 3578.997314,803.350220 3658.732422,791.798523 
	C3708.478271,784.591431 3758.195068,777.181152 3807.966553,770.158752 
	C3813.376709,769.395386 3816.070801,766.960876 3818.323730,762.376160 
	C3840.510010,717.227600 3862.869873,672.164368 3885.151611,627.062622 
	C3910.822266,575.100464 3936.470215,523.127075 3962.114258,471.151855 
	C3974.053955,446.952911 3985.950684,422.732697 3997.896240,398.536682 
	C3999.337891,395.616730 4000.962646,392.787109 4003.307129,388.414764 
	C4005.517090,392.174500 4007.113037,394.536194 4008.363770,397.068420 
	C4067.077637,515.947205 4125.767578,634.837952 4184.440918,753.736511 
	C4191.939453,768.931091 4191.872559,769.099182 4208.365723,771.483643 
	C4270.636230,780.486450 4332.933594,789.302979 4395.197754,798.347534 
	C4461.750000,808.014893 4528.276855,817.862427 4594.814941,827.626343 
	C4600.045898,828.393921 4605.281738,829.122009 4611.947266,830.072510 
	C4609.500977,833.041565 4608.085449,835.125549 4606.319336,836.850952 
	C4534.813965,906.708313 4463.284668,976.540894 4391.740234,1046.357666 
	C4366.700195,1070.792969 4341.792480,1095.369385 4316.414551,1119.449219 
	C4310.362305,1125.192139 4308.674805,1130.778687 4310.115234,1138.801514 
	C4317.173828,1178.119263 4323.782715,1217.517944 4330.547363,1256.888550 
	C4340.299316,1313.646973 4350.056641,1370.404419 4359.797852,1427.164673 
	C4366.104004,1463.907471 4372.392578,1500.653442 4378.658203,1537.403320 
	C4379.080078,1539.878174 4379.234375,1542.398926 4379.664551,1546.258301 
	C4374.575684,1543.768555 4370.701660,1541.992065 4366.934082,1540.012451 
	C4290.256348,1499.723511 4213.583496,1459.424316 4136.925293,1419.098755 
	C4095.058838,1397.075317 4053.166260,1375.099976 4011.432129,1352.828125 
	C4005.764648,1349.803589 4001.328857,1349.863647 3995.689453,1352.843628 
	C3897.897705,1404.515991 3800.013916,1456.014526 3702.131104,1507.514404 
	C3679.723877,1519.303833 3657.247070,1530.961548 3634.792969,1542.661621 
	C3633.052734,1543.568481 3631.237305,1544.331055 3629.894775,1544.956421 
	C3628.998535,1544.671021 3628.637451,1544.652344 3628.429688,1544.464111 
	C3628.198730,1544.254883 3628.002686,1543.901123 3627.973877,1543.593018 
	C3627.880615,1542.609741 3627.747803,1541.604492 3627.856934,1540.633057 
	C3628.079590,1538.649780 3628.425293,1536.678833 3628.763428,1534.710205 
	C3651.169189,1404.126221 3673.578613,1273.542969 3696.101318,1142.111816 
z"/>
<path fill="#F8C316" opacity="1.000000" stroke="none" 
	d="
M7199.364258,1460.587891 
	C7131.463379,1424.900635 7064.161621,1389.673340 6997.044922,1354.095093 
	C6989.833496,1350.272583 6984.336914,1350.007080 6976.895996,1353.948608 
	C6890.928223,1399.486816 6804.742188,1444.612061 6718.625000,1489.868652 
	C6686.772949,1506.607666 6654.954590,1523.411255 6623.108398,1540.161377 
	C6619.374023,1542.125854 6615.559570,1543.938721 6610.264160,1546.578613 
	C6612.599121,1532.397827 6614.571289,1520.003296 6616.689453,1507.633789 
	C6627.084473,1446.925049 6637.508301,1386.221191 6647.942383,1325.519287 
	C6657.643066,1269.088379 6667.375977,1212.662964 6677.076660,1156.231934 
	C6678.317383,1149.013306 6678.984375,1141.658813 6680.774902,1134.584229 
	C6682.107422,1129.317871 6680.799316,1126.016357 6676.968262,1122.339722 
	C6654.608887,1100.879395 6632.508301,1079.150024 6610.320312,1057.511841 
	C6551.869141,1000.509338 6493.425293,943.500183 6434.962891,886.509094 
	C6419.931152,871.855835 6404.872559,857.229614 6389.759766,842.660034 
	C6386.180664,839.210144 6382.333496,836.038330 6377.508301,831.762268 
	C6386.379883,827.430054 6394.395020,827.677002 6401.917969,826.559753 
	C6475.023926,815.702332 6548.171387,805.128845 6621.312012,794.505432 
	C6676.997070,786.417358 6732.659180,778.160217 6788.410645,770.557739 
	C6796.184570,769.497620 6799.995117,766.278137 6803.218750,759.681519 
	C6827.789062,709.395081 6852.665527,659.258118 6877.414062,609.058838 
	C6912.180664,538.539795 6946.915039,468.004700 6981.686523,397.487885 
	C6983.106445,394.607361 6984.755859,391.839905 6987.014160,387.711090 
	C6995.271973,404.344696 7002.838867,419.511017 7010.340820,434.709320 
	C7063.723633,542.856995 7117.137207,650.989807 7170.363770,759.214417 
	C7173.715820,766.029724 7177.464844,769.476440 7185.721680,770.625916 
	C7256.621582,780.496338 7327.411621,791.150330 7398.250977,801.459412 
	C7446.676270,808.506592 7495.128418,815.373291 7543.567383,822.328308 
	C7558.065918,824.409973 7572.566895,826.477661 7587.051758,828.651245 
	C7589.545410,829.025391 7591.964355,829.899536 7595.510742,830.829041 
	C7592.035156,834.452271 7589.397461,837.365479 7586.590332,840.104614 
	C7524.818848,900.382507 7463.047852,960.661072 7401.232422,1020.893799 
	C7366.862793,1054.382690 7332.490234,1087.868652 7297.909668,1121.138184 
	C7293.318359,1125.555054 7292.015625,1129.497314 7293.143555,1135.965454 
	C7306.415039,1212.051270 7319.240234,1288.214478 7332.260254,1364.344116 
	C7342.361816,1423.406006 7352.572754,1482.448975 7362.721191,1541.502808 
	C7362.882324,1542.444092 7362.854004,1543.418213 7363.015625,1546.003540 
	C7343.848633,1537.531372 7326.617188,1527.264893 7308.843750,1518.133545 
	C7290.471191,1508.694580 7272.300293,1498.865356 7254.018555,1489.248535 
	C7236.032227,1479.787109 7218.018555,1470.378174 7199.364258,1460.587891 
z"/>
<path fill="#F8C316" opacity="1.000000" stroke="none" 
	d="
M5750.720703,1483.237793 
	C5668.062988,1439.819214 5586.007812,1396.854004 5504.163086,1353.490601 
	C5497.308594,1349.858887 5492.372559,1350.226562 5485.828613,1353.688843 
	C5409.262207,1394.197754 5332.550293,1434.431885 5255.874023,1474.733398 
	C5213.997070,1496.744263 5172.116211,1518.747925 5130.231445,1540.744629 
	C5127.039551,1542.420898 5123.805176,1544.017822 5118.851562,1546.536011 
	C5119.463867,1541.635986 5119.755859,1538.214233 5120.333008,1534.841309 
	C5127.577148,1492.508545 5134.859375,1450.182129 5142.138184,1407.855347 
	C5150.714355,1357.981567 5159.305176,1308.110352 5167.873535,1258.235229 
	C5174.975586,1216.892212 5181.969238,1175.530273 5189.254883,1134.219604 
	C5190.109375,1129.371460 5189.145996,1126.033081 5185.673828,1122.665161 
	C5152.185547,1090.183594 5118.801270,1057.594849 5085.389648,1025.034546 
	C5061.767090,1002.014160 5038.158691,978.980164 5014.525391,955.970764 
	C4974.651367,917.148865 4934.758301,878.346497 4894.890137,839.518127 
	C4892.314453,837.009644 4889.887207,834.349365 4886.158203,830.480774 
	C4894.906250,828.986084 4902.218262,827.567322 4909.581543,826.505432 
	C4971.534180,817.570801 5033.506348,808.773132 5095.452637,799.791504 
	C5152.120605,791.575073 5208.762207,783.172302 5265.418457,774.872375 
	C5276.618164,773.231628 5287.796387,771.304382 5299.053711,770.251160 
	C5304.881836,769.705811 5307.826172,767.031677 5310.258789,762.064270 
	C5332.675293,716.284973 5355.255371,670.585510 5377.826172,624.882019 
	C5415.589844,548.412598 5453.380371,471.956451 5491.171387,395.500702 
	C5492.192383,393.435211 5493.350586,391.437195 5495.144043,388.109680 
	C5497.208008,391.803955 5498.867676,394.484039 5500.254395,397.298309 
	C5527.646484,452.885223 5554.959961,508.510986 5582.387207,564.080811 
	C5609.516602,619.047668 5636.765625,673.955872 5663.936035,728.902649 
	C5669.547363,740.250549 5675.153320,751.604004 5680.543457,763.057617 
	C5682.579590,767.383362 5685.380859,769.398621 5690.319336,770.106445 
	C5762.488281,780.449707 5834.614746,791.081726 5906.767090,801.540833 
	C5969.041016,810.568054 6031.335449,819.455627 6093.615723,828.440125 
	C6096.557129,828.864441 6099.449219,829.630249 6104.042969,830.586548 
	C6100.596191,834.161560 6098.024414,836.977600 6095.297852,839.634766 
	C6047.569336,886.151428 5999.798828,932.625610 5952.084473,979.156738 
	C5907.948730,1022.196960 5863.872070,1065.298340 5819.756836,1108.359253 
	C5814.750488,1113.245728 5809.724609,1118.114990 5804.581055,1122.855103 
	C5801.427734,1125.760864 5800.188965,1128.585449 5801.020996,1133.312866 
	C5810.604004,1187.739380 5819.853027,1242.224609 5829.175781,1296.696777 
	C5839.452637,1356.746948 5849.707520,1416.800903 5859.982910,1476.851318 
	C5863.576172,1497.849121 5867.207031,1518.840332 5870.806641,1539.836914 
	C5871.077148,1541.414185 5871.236816,1543.010254 5871.739746,1546.792603 
	C5830.600586,1525.189209 5790.988770,1504.388062 5750.720703,1483.237793 
z"/>
<path fill="#F8C316" opacity="1.000000" stroke="none" 
	d="
M2616.572754,599.381165 
	C2643.310303,653.522766 2669.805176,706.953552 2695.956543,760.551819 
	C2699.130127,767.055664 2703.189941,769.527344 2710.297363,770.515320 
	C2762.406250,777.759033 2814.437256,785.558167 2866.501221,793.126587 
	C2910.651367,799.544617 2954.813721,805.880676 2998.968750,812.266968 
	C3036.203369,817.652222 3073.438232,823.038757 3110.663330,828.490784 
	C3113.490479,828.904907 3116.240234,829.846924 3120.156006,830.826111 
	C3116.950439,834.225098 3114.589600,836.912659 3112.038574,839.405945 
	C3064.131836,886.231018 3016.223633,933.054626 2968.271973,979.834045 
	C2920.085938,1026.842041 2871.914307,1073.865601 2823.542480,1120.681763 
	C2818.710205,1125.358643 2816.930176,1129.810669 2818.100586,1136.483887 
	C2829.256348,1200.105103 2840.208984,1263.762085 2851.126709,1327.424805 
	C2861.481445,1387.803589 2871.716064,1448.202881 2882.025391,1508.589355 
	C2883.650146,1518.107056 2885.437012,1527.597290 2887.046631,1537.117432 
	C2887.477539,1539.666016 2887.531494,1542.278442 2887.863281,1546.055420 
	C2884.199463,1544.348633 2881.507568,1543.228027 2878.936523,1541.877686 
	C2790.735352,1495.557983 2702.540771,1449.226440 2614.357178,1402.873169 
	C2583.095459,1386.440552 2551.787598,1370.092163 2520.686523,1353.360229 
	C2514.465576,1350.013550 2509.596924,1349.896729 2503.199219,1353.273682 
	C2387.396973,1414.401001 2271.461914,1475.276367 2155.544678,1536.185913 
	C2149.424316,1539.402100 2143.212891,1542.445923 2135.240967,1546.483154 
	C2137.260254,1534.195679 2138.911865,1523.779907 2140.690430,1513.385986 
	C2150.461670,1456.282715 2160.241699,1399.180908 2170.061035,1342.086060 
	C2180.387695,1282.038696 2190.762451,1221.999512 2201.114502,1161.956543 
	C2202.585449,1153.425049 2203.792969,1144.837646 2205.598145,1136.377808 
	C2206.905518,1130.252441 2205.564941,1125.858276 2200.861328,1121.340210 
	C2171.779297,1093.406494 2143.005615,1065.152100 2114.142334,1036.990967 
	C2049.740479,974.155457 1985.346558,911.311584 1920.947754,848.473022 
	C1915.318237,842.979919 1909.676392,837.499695 1902.535522,830.548767 
	C1911.333984,829.080261 1918.044800,827.833130 1924.794434,826.853638 
	C1982.129639,818.531738 2039.476196,810.289551 2096.810303,801.961365 
	C2144.592041,795.020691 2192.359863,787.985352 2240.136963,781.013428 
	C2265.171875,777.360229 2290.184082,773.525757 2315.272949,770.288696 
	C2321.385986,769.499939 2324.631836,766.884949 2327.230225,761.577209 
	C2357.704346,699.333130 2388.305176,637.151123 2418.966064,574.998779 
	C2443.581787,525.100098 2468.333252,475.268219 2493.004395,425.396759 
	C2497.436035,416.437836 2501.733154,407.412170 2506.169922,398.455811 
	C2507.607422,395.554260 2509.292725,392.775757 2511.956787,387.971802 
	C2547.759277,459.100220 2581.722900,529.046143 2616.572754,599.381165 
z"/>
<path fill="#F8C316" opacity="1.000000" stroke="none" 
	d="
M1084.490479,517.421509 
	C1124.140015,597.893372 1163.456909,677.697754 1202.782104,757.498047 
	C1203.960449,759.889282 1205.296265,762.204590 1206.431885,764.614990 
	C1208.002686,767.949402 1210.573975,769.433777 1214.219482,769.950378 
	C1246.855713,774.575195 1279.473633,779.329102 1312.098145,784.035950 
	C1350.989502,789.646851 1389.886719,795.217346 1428.773071,800.863037 
	C1472.601196,807.226135 1516.417847,813.669250 1560.244019,820.045471 
	C1580.014038,822.921814 1599.799438,825.692749 1619.566528,828.588440 
	C1622.159058,828.968262 1624.684204,829.807617 1628.457520,830.732422 
	C1626.022949,833.525391 1624.293945,835.812744 1622.264771,837.792542 
	C1572.885742,885.970215 1523.473877,934.114136 1474.069946,982.266235 
	C1426.811890,1028.326904 1379.656494,1074.493896 1332.164551,1120.312134 
	C1326.613770,1125.667236 1325.456543,1130.599854 1326.734253,1137.880615 
	C1337.323853,1198.220825 1347.518677,1258.630127 1357.887939,1319.009033 
	C1366.284180,1367.899048 1374.771973,1416.773193 1383.188965,1465.659546 
	C1387.370117,1489.944336 1391.497681,1514.238403 1395.602783,1538.536255 
	C1395.925903,1540.448853 1395.881470,1542.423828 1396.129517,1546.242310 
	C1390.954956,1543.634155 1386.925781,1541.677856 1382.963257,1539.595337 
	C1266.158447,1478.209106 1149.360229,1416.810303 1032.560669,1355.414185 
	C1030.790771,1354.483887 1028.880371,1353.751587 1027.270874,1352.598633 
	C1022.244995,1348.998413 1017.688721,1349.942139 1012.480652,1352.742310 
	C988.122498,1365.838989 963.589783,1378.611450 939.111328,1391.484253 
	C843.264404,1441.888916 747.415405,1492.289551 651.558838,1542.675903 
	C649.534302,1543.740234 647.409607,1544.614136 643.775757,1546.297729 
	C645.507263,1535.300049 646.919250,1525.607178 648.571655,1515.955566 
	C658.347595,1458.852295 668.181335,1401.758789 677.991821,1344.661377 
	C686.901001,1292.809570 695.803711,1240.956543 704.712708,1189.104614 
	C707.757141,1171.385132 710.633423,1153.634033 713.957703,1135.967163 
	C715.134766,1129.711670 713.420593,1125.513672 708.827576,1121.050293 
	C637.363953,1051.601196 566.094177,981.952515 494.768005,912.361877 
	C469.482513,887.691528 444.158813,863.060425 418.877014,838.386292 
	C416.765503,836.325562 414.841614,834.072449 411.624237,830.610840 
	C416.464569,829.656921 420.110657,828.779236 423.805817,828.234375 
	C463.662384,822.357056 503.521454,816.496399 543.390076,810.701538 
	C595.124573,803.182129 646.867920,795.724365 698.608093,788.243896 
	C740.789978,782.145264 782.957764,775.944519 825.173157,770.086914 
	C830.723999,769.316589 833.081970,766.304871 835.256897,761.859802 
	C850.192749,731.333374 865.269531,700.875793 880.314270,670.402649 
	C925.598083,578.680054 970.885925,486.959412 1016.190796,395.247192 
	C1017.052185,393.503357 1018.142822,391.872803 1020.083069,388.552429 
	C1032.680664,410.185822 1041.935669,432.067505 1052.646118,453.170502 
	C1063.351074,474.262970 1073.670654,495.551086 1084.490479,517.421509 
z"/>
</svg>